PathFileType  4	(X/Y/Z) C:\Users\antoi\Documents\MyRepositories\mobilecap\ResultsAnalysis
DataRate	CameraRate	NumFrames	NumMarkers	Units	OrigDataRate	OrigDataStartFrame	OrigNumFrames
100.0	100.0	5	51	mm	100.0	175	279
Frame#	Time	r_knee			r_shank_antsup			r_ankle			r_calc			r_5meta			r_toe			L_knee			L_shank_antsup			L_ankle			L_calc			L_5meta			L_toe			r_sh2			r_sh3			r_sh4			L_sh2			L_sh3			r_thigh1			r_thigh2			r_thigh3			r_thigh4			r_thigh5			L_thigh1			L_thigh2			L_thigh3			L_thigh4			r.ASIS			r.PSIS			L.ASIS			L.PSIS			C7			R_Shoulder			L_Shoulder			R_Sternum			L_Sternum			R_humerus			R_elbow_med			R_elbow_lat			R_forearm			R_wrist_radius			R_wrist_ulna			L_humerus			L_elbow_med			L_elbow_lat			L_forearm			L_wrist_radius			L_wrist_ulna			R_HJC			L_HJC			R_HJC_reg			L_HJC_reg			
		X1	Y1	Z1	X2	Y2	Z2	X3	Y3	Z3	X4	Y4	Z4	X5	Y5	Z5	X6	Y6	Z6	X7	Y7	Z7	X8	Y8	Z8	X9	Y9	Z9	X10	Y10	Z10	X11	Y11	Z11	X12	Y12	Z12	X13	Y13	Z13	X14	Y14	Z14	X15	Y15	Z15	X16	Y16	Z16	X17	Y17	Z17	X18	Y18	Z18	X19	Y19	Z19	X20	Y20	Z20	X21	Y21	Z21	X22	Y22	Z22	X23	Y23	Z23	X24	Y24	Z24	X25	Y25	Z25	X26	Y26	Z26	X27	Y27	Z27	X28	Y28	Z28	X29	Y29	Z29	X30	Y30	Z30	X31	Y31	Z31	X32	Y32	Z32	X33	Y33	Z33	X34	Y34	Z34	X35	Y35	Z35	X36	Y36	Z36	X37	Y37	Z37	X38	Y38	Z38	X39	Y39	Z39	X40	Y40	Z40	X41	Y41	Z41	X42	Y42	Z42	X43	Y43	Z43	X44	Y44	Z44	X45	Y45	Z45	X46	Y46	Z46	X47	Y47	Z47	X48	Y48	Z48	X49	Y49	Z49	X50	Y50	Z50	X51	Y51	Z51	

175	1.74000000	-103.28528	483.64376	-438.60666	-91.37693	405.36214	-419.06088	-290.72777	104.49895	-429.45248	-359.54364	56.10609	-483.89550	-170.14060	37.99141	-383.17340	-126.08913	58.77700	-439.09918	-135.35088	484.80194	-763.13658	-139.29866	374.62695	-782.20916	-320.15436	105.08385	-742.58721	-390.33137	55.61590	-695.78677	-153.19192	57.23684	-744.65306	-188.19707	33.39583	-805.17881	-141.93329	303.99386	-411.99348	-157.33826	440.44722	-403.72170	-217.04394	341.25395	-398.96159	-216.88795	420.02328	-780.87143	-266.25806	311.29236	-777.36578	-271.68631	738.88051	-379.94852	-184.76921	677.51475	-401.34923	-194.06512	613.28414	-377.00692	-337.11639	645.77721	-377.56002	-238.40231	582.23288	-387.31965	-316.46161	746.45720	-753.65339	-205.53524	665.35429	-766.80917	-386.37770	651.00565	-746.56519	-270.59547	576.81800	-771.64593	-309.79940	827.40336	-434.48836	-487.78292	914.59825	-495.33553	-339.50208	820.97154	-692.78790	-500.18867	911.18233	-598.22681	-247.60202	1366.35404	-569.59913	-180.10552	1310.46417	-412.73112	-207.69261	1318.22927	-726.95420	-128.04969	1242.16592	-549.76168	-136.76156	1240.43880	-603.71153	-176.06573	1074.35753	-280.72934	-213.96625	957.05973	-324.47257	-176.53473	990.35558	-245.73408	-27.90909	963.85236	-303.25746	63.82804	942.88828	-364.46194	65.61474	920.42988	-325.27639	-283.21399	1111.34386	-875.35674	-353.33030	1005.21072	-845.17430	-319.37572	1036.27026	-913.25934	-171.02889	942.41165	-917.42149	-83.55653	902.64473	-898.46895	-102.48901	876.22928	-922.93424	-410.42073	773.64765	-429.16879	-434.41334	767.39195	-658.19817	-403.74288	774.93699	-458.61388	-424.28109	769.28202	-628.94052	
176	1.75000000	-103.65201	483.73598	-437.13050	-91.71091	404.97924	-418.82376	-290.93631	104.49003	-429.76255	-359.58341	55.99260	-484.02667	-170.21671	37.98776	-383.28747	-126.10968	58.85304	-439.12467	-135.30183	484.40031	-763.64682	-139.41704	374.22037	-782.40532	-320.44640	104.76221	-742.34641	-390.37424	55.49896	-695.78284	-153.20981	57.41573	-744.63743	-188.25497	33.51034	-805.21219	-142.38312	303.78329	-411.79137	-157.36789	440.31537	-403.54091	-217.69833	341.21509	-399.28047	-217.08356	419.68159	-781.07454	-266.45806	310.78501	-777.47113	-272.45018	737.63666	-379.86298	-184.97993	675.30895	-400.92856	-194.92726	612.16663	-377.03081	-337.93649	644.69885	-378.26562	-239.09735	581.28993	-387.45437	-316.67412	745.66570	-754.52501	-205.72776	664.69071	-767.49380	-386.74190	650.07202	-747.16154	-270.75538	576.05759	-772.20772	-309.20919	825.17260	-435.36394	-486.30514	914.12303	-496.62075	-339.51747	819.09399	-694.54388	-498.91243	910.66730	-599.06776	-241.55594	1362.76667	-569.56769	-173.73392	1305.41985	-412.03516	-201.26878	1313.96756	-727.33580	-122.89307	1238.09523	-549.94744	-131.18446	1236.50836	-603.76133	-176.14246	1067.43682	-283.00461	-215.20003	951.48510	-329.26945	-178.64613	982.87376	-249.73545	-29.36857	953.34497	-304.17217	63.01461	931.23313	-363.38268	63.34224	908.01218	-324.61190	-279.27192	1108.72703	-877.03654	-350.39093	1003.05968	-847.66942	-316.33377	1034.35198	-915.35384	-168.50940	939.87519	-920.58971	-81.10111	900.13646	-902.54203	-100.46309	873.40291	-926.32833	-410.30844	772.38384	-430.35932	-434.74525	766.37195	-659.34902	-403.82293	773.69175	-459.34789	-424.85303	767.92701	-630.23282	
177	1.76000000	-103.65479	483.64585	-435.94018	-91.67463	404.55528	-418.24708	-291.11389	104.45394	-430.02867	-359.75145	55.74325	-484.11723	-170.30188	37.97427	-383.33765	-126.10720	58.92951	-439.11404	-134.96005	483.86603	-764.45690	-139.26142	373.61246	-782.49092	-320.66956	104.47223	-742.23927	-390.41634	55.41297	-695.81843	-153.23891	57.50992	-744.64314	-188.28223	33.53207	-805.22747	-142.54598	303.71688	-411.29304	-157.21967	439.97256	-403.18885	-218.00887	340.91906	-399.34568	-216.87792	419.41373	-781.69110	-266.28886	310.72829	-777.79863	-273.19649	736.34615	-379.82370	-184.64870	674.31351	-400.35798	-195.54860	611.00888	-376.99753	-338.56907	643.52380	-378.94532	-239.56085	580.24062	-387.70000	-316.78046	744.51769	-755.76001	-205.72908	663.60739	-768.25565	-386.83006	648.72884	-747.86906	-270.70895	574.94056	-772.81097	-308.60197	822.58356	-436.21364	-484.74956	913.31775	-497.91549	-339.02547	816.78866	-695.91052	-497.41844	909.85342	-600.21546	-235.75924	1358.85216	-569.55518	-167.27855	1299.67855	-411.08275	-194.87349	1309.33981	-727.98415	-118.16238	1233.60731	-550.33331	-125.77582	1232.24363	-603.94716	-176.51207	1060.29370	-285.17022	-216.28738	945.61746	-333.96766	-180.98902	975.25031	-253.55568	-31.23453	942.97076	-305.20229	61.69088	919.74871	-362.44155	60.86852	895.73077	-324.23813	-275.48778	1105.57252	-878.87367	-347.60462	1000.46069	-849.96010	-313.50326	1031.90051	-917.32536	-166.44341	936.57502	-923.79773	-79.22475	896.59917	-906.47600	-98.91010	869.66540	-929.53418	-410.24016	770.81794	-431.49488	-434.69636	764.97860	-660.48669	-403.78826	772.12038	-460.17193	-424.99005	766.32250	-631.38117	
178	1.77000000	-103.15029	483.01309	-435.54031	-91.24580	404.00299	-417.50367	-291.20300	104.40218	-430.25666	-359.78188	55.65397	-484.19018	-170.31753	37.99648	-383.25228	-126.08704	59.03874	-439.04860	-134.35117	483.05526	-764.98310	-138.77618	372.98154	-782.69265	-320.78142	104.28959	-742.26270	-390.42372	55.33135	-695.84767	-153.27854	57.53319	-744.66503	-188.28975	33.50205	-805.23430	-142.42560	303.42121	-410.92317	-156.95107	439.37059	-402.98794	-217.88741	340.50670	-399.19901	-216.26302	419.04501	-782.26034	-265.89469	310.54715	-778.22964	-273.73092	735.23113	-379.94586	-184.53046	674.07708	-400.11420	-195.78900	610.01675	-376.92415	-338.85005	642.18011	-379.60580	-239.67430	579.10511	-388.07012	-316.77009	743.00308	-757.10414	-205.49274	662.21819	-769.05611	-386.55790	647.09002	-748.78073	-270.36631	573.53046	-773.31569	-308.01634	819.61849	-437.56710	-483.15535	912.20896	-499.13325	-338.29066	814.12080	-697.14035	-495.76283	908.76262	-601.63414	-230.17726	1354.64083	-569.74902	-161.20685	1293.68244	-410.49690	-188.58522	1304.38363	-728.90089	-113.41717	1228.94118	-550.75329	-120.61034	1227.66446	-604.00832	-177.03264	1052.89817	-287.25403	-216.89691	940.03132	-338.83124	-183.54367	967.50802	-257.12021	-33.50655	932.63625	-306.33899	59.89111	908.29937	-361.71255	58.11762	883.38742	-324.17498	-271.90809	1101.97870	-880.63071	-344.89063	997.47988	-852.05721	-310.80920	1029.06357	-919.38335	-164.76899	932.47853	-926.94925	-77.82105	892.01173	-910.21118	-97.80773	864.90220	-932.33065	-410.13964	768.90039	-432.79605	-434.53756	763.30232	-661.79986	-403.73147	770.30045	-461.56077	-424.78044	764.54673	-632.69284	
179	1.78000000	-102.16802	481.80844	-435.76858	-90.48444	403.27883	-416.88518	-291.20344	104.36923	-430.53032	-359.61020	55.79108	-484.28078	-170.30082	38.04538	-383.15503	-126.08624	59.16756	-438.93297	-133.43479	481.98857	-765.02866	-137.97548	372.31360	-783.00439	-320.78497	104.17033	-742.28442	-390.36373	55.27352	-695.84312	-153.31813	57.51916	-744.67005	-188.29868	33.48297	-805.23897	-142.03600	302.61395	-410.88187	-156.37841	438.70017	-402.90667	-217.40510	340.08784	-399.04650	-215.33039	418.46837	-782.42478	-265.37426	309.82624	-778.42273	-273.96270	734.18498	-380.26873	-185.06259	673.17362	-400.35372	-195.63214	609.18279	-376.88235	-338.79665	640.76971	-380.10416	-239.39380	577.96701	-388.28296	-316.55263	741.15450	-758.36588	-205.00696	660.54575	-769.83997	-385.98771	645.15647	-749.50668	-269.67846	571.70448	-773.52918	-307.41174	816.41194	-439.31478	-481.54281	910.82216	-500.42018	-337.30937	811.21303	-698.45670	-494.09414	907.35659	-603.12074	-224.75048	1350.15068	-570.00163	-155.58550	1287.58910	-410.32503	-182.48689	1299.06777	-729.78535	-108.46860	1224.09732	-551.07004	-115.68657	1222.82924	-603.96693	-177.61765	1045.26231	-289.24855	-217.58272	934.65852	-343.34157	-186.24845	959.62514	-260.56509	-36.12633	922.21130	-307.45251	57.73615	896.77491	-361.22092	54.78426	870.94785	-324.36560	-268.54571	1097.94367	-882.14431	-342.25358	994.22589	-853.93698	-308.18139	1025.69788	-921.18068	-163.35527	927.44690	-929.81074	-76.74155	886.30844	-913.69807	-97.12599	859.13824	-935.12037	-409.91052	766.67938	-434.28512	-434.24031	761.38363	-663.30342	-403.50081	768.35825	-463.28678	-424.37902	762.59391	-634.12161	
